<mxfile host="app.diagrams.net" modified="2021-05-24T08:40:05.527Z" agent="5.0 (Windows NT 10.0; Win64; x64) AppleWebKit/537.36 (KHTML, like Gecko) Chrome/90.0.4430.72 Safari/537.36" etag="fvuJRhYWwOJ5PLQEi2tY" version="14.6.13" type="github">
  <diagram id="R67lWWcYIzcq2cBP-e32" name="第 1 页">
    <mxGraphModel dx="2844" dy="1524" grid="1" gridSize="10" guides="1" tooltips="1" connect="1" arrows="1" fold="1" page="1" pageScale="1" pageWidth="827" pageHeight="1169" math="0" shadow="0">
      <root>
        <mxCell id="0" />
        <mxCell id="1" parent="0" />
        <mxCell id="S7l5mnK8BEALIM2VFgE4-25" value="AstNode" style="swimlane;fontStyle=1;align=center;verticalAlign=top;childLayout=stackLayout;horizontal=1;startSize=26;horizontalStack=0;resizeParent=1;resizeParentMax=0;resizeLast=0;collapsible=1;marginBottom=0;" parent="1" vertex="1">
          <mxGeometry x="1390" y="190" width="230" height="242" as="geometry" />
        </mxCell>
        <mxCell id="S7l5mnK8BEALIM2VFgE4-26" value="" style="line;strokeWidth=1;fillColor=none;align=left;verticalAlign=middle;spacingTop=-1;spacingLeft=3;spacingRight=3;rotatable=0;labelPosition=right;points=[];portConstraint=eastwest;" parent="S7l5mnK8BEALIM2VFgE4-25" vertex="1">
          <mxGeometry y="26" width="230" height="8" as="geometry" />
        </mxCell>
        <mxCell id="S7l5mnK8BEALIM2VFgE4-27" value="+ nextp(): AstNode*" style="text;strokeColor=none;fillColor=none;align=left;verticalAlign=top;spacingLeft=4;spacingRight=4;overflow=hidden;rotatable=0;points=[[0,0.5],[1,0.5]];portConstraint=eastwest;" parent="S7l5mnK8BEALIM2VFgE4-25" vertex="1">
          <mxGeometry y="34" width="230" height="26" as="geometry" />
        </mxCell>
        <mxCell id="S7l5mnK8BEALIM2VFgE4-28" value="+ backp(): AstNode*" style="text;strokeColor=none;fillColor=none;align=left;verticalAlign=top;spacingLeft=4;spacingRight=4;overflow=hidden;rotatable=0;points=[[0,0.5],[1,0.5]];portConstraint=eastwest;" parent="S7l5mnK8BEALIM2VFgE4-25" vertex="1">
          <mxGeometry y="60" width="230" height="26" as="geometry" />
        </mxCell>
        <mxCell id="S7l5mnK8BEALIM2VFgE4-29" value="+ op1p(): AstNode*" style="text;strokeColor=none;fillColor=none;align=left;verticalAlign=top;spacingLeft=4;spacingRight=4;overflow=hidden;rotatable=0;points=[[0,0.5],[1,0.5]];portConstraint=eastwest;" parent="S7l5mnK8BEALIM2VFgE4-25" vertex="1">
          <mxGeometry y="86" width="230" height="26" as="geometry" />
        </mxCell>
        <mxCell id="S7l5mnK8BEALIM2VFgE4-30" value="+ op2p(): AstNode*" style="text;strokeColor=none;fillColor=none;align=left;verticalAlign=top;spacingLeft=4;spacingRight=4;overflow=hidden;rotatable=0;points=[[0,0.5],[1,0.5]];portConstraint=eastwest;" parent="S7l5mnK8BEALIM2VFgE4-25" vertex="1">
          <mxGeometry y="112" width="230" height="26" as="geometry" />
        </mxCell>
        <mxCell id="S7l5mnK8BEALIM2VFgE4-31" value="+ op3p(): AstNode*" style="text;strokeColor=none;fillColor=none;align=left;verticalAlign=top;spacingLeft=4;spacingRight=4;overflow=hidden;rotatable=0;points=[[0,0.5],[1,0.5]];portConstraint=eastwest;" parent="S7l5mnK8BEALIM2VFgE4-25" vertex="1">
          <mxGeometry y="138" width="230" height="26" as="geometry" />
        </mxCell>
        <mxCell id="S7l5mnK8BEALIM2VFgE4-32" value="+ op4p(): AstNode*" style="text;strokeColor=none;fillColor=none;align=left;verticalAlign=top;spacingLeft=4;spacingRight=4;overflow=hidden;rotatable=0;points=[[0,0.5],[1,0.5]];portConstraint=eastwest;" parent="S7l5mnK8BEALIM2VFgE4-25" vertex="1">
          <mxGeometry y="164" width="230" height="26" as="geometry" />
        </mxCell>
        <mxCell id="S7l5mnK8BEALIM2VFgE4-33" value="+ accept(AstNVisitor&amp; v): virtual void =0" style="text;strokeColor=none;fillColor=none;align=left;verticalAlign=top;spacingLeft=4;spacingRight=4;overflow=hidden;rotatable=0;points=[[0,0.5],[1,0.5]];portConstraint=eastwest;fontStyle=2" parent="S7l5mnK8BEALIM2VFgE4-25" vertex="1">
          <mxGeometry y="190" width="230" height="26" as="geometry" />
        </mxCell>
        <mxCell id="S7l5mnK8BEALIM2VFgE4-105" style="edgeStyle=orthogonalEdgeStyle;rounded=0;orthogonalLoop=1;jettySize=auto;html=1;" parent="S7l5mnK8BEALIM2VFgE4-25" source="S7l5mnK8BEALIM2VFgE4-103" target="S7l5mnK8BEALIM2VFgE4-33" edge="1">
          <mxGeometry relative="1" as="geometry" />
        </mxCell>
        <mxCell id="S7l5mnK8BEALIM2VFgE4-103" value="+ iterateAndNext(AstNVisitor&amp; v): void" style="text;strokeColor=none;fillColor=none;align=left;verticalAlign=top;spacingLeft=4;spacingRight=4;overflow=hidden;rotatable=0;points=[[0,0.5],[1,0.5]];portConstraint=eastwest;fontStyle=0" parent="S7l5mnK8BEALIM2VFgE4-25" vertex="1">
          <mxGeometry y="216" width="230" height="26" as="geometry" />
        </mxCell>
        <mxCell id="S7l5mnK8BEALIM2VFgE4-34" value="AstNVisitor" style="swimlane;fontStyle=1;align=center;verticalAlign=top;childLayout=stackLayout;horizontal=1;startSize=26;horizontalStack=0;resizeParent=1;resizeParentMax=0;resizeLast=0;collapsible=1;marginBottom=0;" parent="1" vertex="1">
          <mxGeometry x="2150" y="320" width="230" height="156" as="geometry" />
        </mxCell>
        <mxCell id="S7l5mnK8BEALIM2VFgE4-35" value="+ field: type" style="text;strokeColor=none;fillColor=none;align=left;verticalAlign=top;spacingLeft=4;spacingRight=4;overflow=hidden;rotatable=0;points=[[0,0.5],[1,0.5]];portConstraint=eastwest;" parent="S7l5mnK8BEALIM2VFgE4-34" vertex="1">
          <mxGeometry y="26" width="230" height="26" as="geometry" />
        </mxCell>
        <mxCell id="S7l5mnK8BEALIM2VFgE4-36" value="" style="line;strokeWidth=1;fillColor=none;align=left;verticalAlign=middle;spacingTop=-1;spacingLeft=3;spacingRight=3;rotatable=0;labelPosition=right;points=[];portConstraint=eastwest;" parent="S7l5mnK8BEALIM2VFgE4-34" vertex="1">
          <mxGeometry y="52" width="230" height="8" as="geometry" />
        </mxCell>
        <mxCell id="S7l5mnK8BEALIM2VFgE4-37" value="+ iterate(AstNode*): void" style="text;strokeColor=none;fillColor=none;align=left;verticalAlign=top;spacingLeft=4;spacingRight=4;overflow=hidden;rotatable=0;points=[[0,0.5],[1,0.5]];portConstraint=eastwest;" parent="S7l5mnK8BEALIM2VFgE4-34" vertex="1">
          <mxGeometry y="60" width="230" height="26" as="geometry" />
        </mxCell>
        <mxCell id="S7l5mnK8BEALIM2VFgE4-91" value="+ iterateAndNextNull(AstNode*): void" style="text;strokeColor=none;fillColor=none;align=left;verticalAlign=top;spacingLeft=4;spacingRight=4;overflow=hidden;rotatable=0;points=[[0,0.5],[1,0.5]];portConstraint=eastwest;" parent="S7l5mnK8BEALIM2VFgE4-34" vertex="1">
          <mxGeometry y="86" width="230" height="26" as="geometry" />
        </mxCell>
        <mxCell id="S7l5mnK8BEALIM2VFgE4-38" value="+ visit(AstXXX* nodep): virtual void&#xa;    astgen脚本生成V3Ast_gen_visitor.h" style="text;strokeColor=none;fillColor=none;align=left;verticalAlign=top;spacingLeft=4;spacingRight=4;overflow=hidden;rotatable=0;points=[[0,0.5],[1,0.5]];portConstraint=eastwest;fontStyle=2" parent="S7l5mnK8BEALIM2VFgE4-34" vertex="1">
          <mxGeometry y="112" width="230" height="44" as="geometry" />
        </mxCell>
        <mxCell id="S7l5mnK8BEALIM2VFgE4-39" value="Call" style="endArrow=classic;html=1;edgeStyle=orthogonalEdgeStyle;" parent="1" source="S7l5mnK8BEALIM2VFgE4-37" target="S7l5mnK8BEALIM2VFgE4-33" edge="1">
          <mxGeometry width="50" height="50" relative="1" as="geometry">
            <mxPoint x="2180" y="943" as="sourcePoint" />
            <mxPoint x="1820" y="890" as="targetPoint" />
          </mxGeometry>
        </mxCell>
        <mxCell id="S7l5mnK8BEALIM2VFgE4-40" value="Call" style="endArrow=classic;html=1;edgeStyle=orthogonalEdgeStyle;exitX=0;exitY=0;exitDx=100;exitDy=24;exitPerimeter=0;" parent="1" source="S7l5mnK8BEALIM2VFgE4-41" edge="1">
          <mxGeometry width="50" height="50" relative="1" as="geometry">
            <mxPoint x="1225" y="869" as="sourcePoint" />
            <mxPoint x="1760" y="685" as="targetPoint" />
          </mxGeometry>
        </mxCell>
        <mxCell id="S7l5mnK8BEALIM2VFgE4-41" value="v.visit()" style="shape=note2;boundedLbl=1;whiteSpace=wrap;html=1;size=8;verticalAlign=top;align=center;" parent="1" vertex="1">
          <mxGeometry x="1630" y="1423" width="100" height="40" as="geometry" />
        </mxCell>
        <mxCell id="S7l5mnK8BEALIM2VFgE4-42" value="EmitCBaseVisitor" style="swimlane;fontStyle=1;align=center;verticalAlign=top;childLayout=stackLayout;horizontal=1;startSize=26;horizontalStack=0;resizeParent=1;resizeParentMax=0;resizeLast=0;collapsible=1;marginBottom=0;" parent="1" vertex="1">
          <mxGeometry x="2150" y="600" width="230" height="86" as="geometry" />
        </mxCell>
        <mxCell id="S7l5mnK8BEALIM2VFgE4-43" value="+ field: type" style="text;strokeColor=none;fillColor=none;align=left;verticalAlign=top;spacingLeft=4;spacingRight=4;overflow=hidden;rotatable=0;points=[[0,0.5],[1,0.5]];portConstraint=eastwest;" parent="S7l5mnK8BEALIM2VFgE4-42" vertex="1">
          <mxGeometry y="26" width="230" height="26" as="geometry" />
        </mxCell>
        <mxCell id="S7l5mnK8BEALIM2VFgE4-44" value="" style="line;strokeWidth=1;fillColor=none;align=left;verticalAlign=middle;spacingTop=-1;spacingLeft=3;spacingRight=3;rotatable=0;labelPosition=right;points=[];portConstraint=eastwest;" parent="S7l5mnK8BEALIM2VFgE4-42" vertex="1">
          <mxGeometry y="52" width="230" height="8" as="geometry" />
        </mxCell>
        <mxCell id="S7l5mnK8BEALIM2VFgE4-45" value="+ EmitCBaseVisitor(): default " style="text;strokeColor=none;fillColor=none;align=left;verticalAlign=top;spacingLeft=4;spacingRight=4;overflow=hidden;rotatable=0;points=[[0,0.5],[1,0.5]];portConstraint=eastwest;" parent="S7l5mnK8BEALIM2VFgE4-42" vertex="1">
          <mxGeometry y="60" width="230" height="26" as="geometry" />
        </mxCell>
        <mxCell id="S7l5mnK8BEALIM2VFgE4-46" value="Extends" style="endArrow=block;endSize=16;endFill=0;html=1;exitX=0.5;exitY=0;exitDx=0;exitDy=0;edgeStyle=orthogonalEdgeStyle;" parent="1" source="S7l5mnK8BEALIM2VFgE4-42" target="S7l5mnK8BEALIM2VFgE4-34" edge="1">
          <mxGeometry width="160" relative="1" as="geometry">
            <mxPoint x="2065" y="910" as="sourcePoint" />
            <mxPoint x="2275" y="790" as="targetPoint" />
          </mxGeometry>
        </mxCell>
        <mxCell id="S7l5mnK8BEALIM2VFgE4-47" value="EmitCStmts" style="swimlane;fontStyle=1;align=center;verticalAlign=top;childLayout=stackLayout;horizontal=1;startSize=26;horizontalStack=0;resizeParent=1;resizeParentMax=0;resizeLast=0;collapsible=1;marginBottom=0;" parent="1" vertex="1">
          <mxGeometry x="2150" y="753" width="230" height="86" as="geometry" />
        </mxCell>
        <mxCell id="S7l5mnK8BEALIM2VFgE4-48" value="+ field: type" style="text;strokeColor=none;fillColor=none;align=left;verticalAlign=top;spacingLeft=4;spacingRight=4;overflow=hidden;rotatable=0;points=[[0,0.5],[1,0.5]];portConstraint=eastwest;" parent="S7l5mnK8BEALIM2VFgE4-47" vertex="1">
          <mxGeometry y="26" width="230" height="26" as="geometry" />
        </mxCell>
        <mxCell id="S7l5mnK8BEALIM2VFgE4-49" value="" style="line;strokeWidth=1;fillColor=none;align=left;verticalAlign=middle;spacingTop=-1;spacingLeft=3;spacingRight=3;rotatable=0;labelPosition=right;points=[];portConstraint=eastwest;" parent="S7l5mnK8BEALIM2VFgE4-47" vertex="1">
          <mxGeometry y="52" width="230" height="8" as="geometry" />
        </mxCell>
        <mxCell id="S7l5mnK8BEALIM2VFgE4-50" value="+ visit(AstXXX*): void override " style="text;strokeColor=none;fillColor=none;align=left;verticalAlign=top;spacingLeft=4;spacingRight=4;overflow=hidden;rotatable=0;points=[[0,0.5],[1,0.5]];portConstraint=eastwest;" parent="S7l5mnK8BEALIM2VFgE4-47" vertex="1">
          <mxGeometry y="60" width="230" height="26" as="geometry" />
        </mxCell>
        <mxCell id="S7l5mnK8BEALIM2VFgE4-51" value="Extends" style="endArrow=block;endSize=16;endFill=0;html=1;exitX=0.5;exitY=0;exitDx=0;exitDy=0;edgeStyle=orthogonalEdgeStyle;" parent="1" source="S7l5mnK8BEALIM2VFgE4-47" target="S7l5mnK8BEALIM2VFgE4-42" edge="1">
          <mxGeometry width="160" relative="1" as="geometry">
            <mxPoint x="2275" y="933" as="sourcePoint" />
            <mxPoint x="2085" y="813" as="targetPoint" />
          </mxGeometry>
        </mxCell>
        <mxCell id="S7l5mnK8BEALIM2VFgE4-52" value="EmitCImp" style="swimlane;fontStyle=1;align=center;verticalAlign=top;childLayout=stackLayout;horizontal=1;startSize=26;horizontalStack=0;resizeParent=1;resizeParentMax=0;resizeLast=0;collapsible=1;marginBottom=0;" parent="1" vertex="1">
          <mxGeometry x="2130" y="955" width="270" height="358" as="geometry" />
        </mxCell>
        <mxCell id="S7l5mnK8BEALIM2VFgE4-53" value="+ field: type" style="text;strokeColor=none;fillColor=none;align=left;verticalAlign=top;spacingLeft=4;spacingRight=4;overflow=hidden;rotatable=0;points=[[0,0.5],[1,0.5]];portConstraint=eastwest;" parent="S7l5mnK8BEALIM2VFgE4-52" vertex="1">
          <mxGeometry y="26" width="270" height="26" as="geometry" />
        </mxCell>
        <mxCell id="S7l5mnK8BEALIM2VFgE4-54" value="" style="line;strokeWidth=1;fillColor=none;align=left;verticalAlign=middle;spacingTop=-1;spacingLeft=3;spacingRight=3;rotatable=0;labelPosition=right;points=[];portConstraint=eastwest;" parent="S7l5mnK8BEALIM2VFgE4-52" vertex="1">
          <mxGeometry y="52" width="270" height="8" as="geometry" />
        </mxCell>
        <mxCell id="S7l5mnK8BEALIM2VFgE4-55" value="+ visit(AstXXX*): void override " style="text;strokeColor=none;fillColor=none;align=left;verticalAlign=top;spacingLeft=4;spacingRight=4;overflow=hidden;rotatable=0;points=[[0,0.5],[1,0.5]];portConstraint=eastwest;" parent="S7l5mnK8BEALIM2VFgE4-52" vertex="1">
          <mxGeometry y="60" width="270" height="20" as="geometry" />
        </mxCell>
        <mxCell id="S7l5mnK8BEALIM2VFgE4-56" value="- newOutCFile(AstNodeMoudle*, slow, &#xa;    source, filenum): V3OutCFile*&#xa;    创建文件，输出文件头注释" style="text;strokeColor=none;fillColor=none;align=left;verticalAlign=top;spacingLeft=4;spacingRight=4;overflow=hidden;rotatable=0;points=[[0,0.5],[1,0.5]];portConstraint=eastwest;" parent="S7l5mnK8BEALIM2VFgE4-52" vertex="1">
          <mxGeometry y="80" width="270" height="52" as="geometry" />
        </mxCell>
        <mxCell id="S7l5mnK8BEALIM2VFgE4-57" value="+ mainInt(AstNodeMoudle*): void&#xa;    输出头文件" style="text;strokeColor=none;fillColor=none;align=left;verticalAlign=top;spacingLeft=4;spacingRight=4;overflow=hidden;rotatable=0;points=[[0,0.5],[1,0.5]];portConstraint=eastwest;" parent="S7l5mnK8BEALIM2VFgE4-52" vertex="1">
          <mxGeometry y="132" width="270" height="34" as="geometry" />
        </mxCell>
        <mxCell id="S7l5mnK8BEALIM2VFgE4-58" value="- emitIntTop(AstNodeMoudle*): void&#xa;    输出文件宏和头文件包含" style="text;strokeColor=none;fillColor=none;align=left;verticalAlign=top;spacingLeft=4;spacingRight=4;overflow=hidden;rotatable=0;points=[[0,0.5],[1,0.5]];portConstraint=eastwest;" parent="S7l5mnK8BEALIM2VFgE4-52" vertex="1">
          <mxGeometry y="166" width="270" height="38" as="geometry" />
        </mxCell>
        <mxCell id="S7l5mnK8BEALIM2VFgE4-59" value="- emitInt(AstNodeMoudle*): void&#xa;    输出类定义(头文件主体内容)" style="text;strokeColor=none;fillColor=none;align=left;verticalAlign=top;spacingLeft=4;spacingRight=4;overflow=hidden;rotatable=0;points=[[0,0.5],[1,0.5]];portConstraint=eastwest;" parent="S7l5mnK8BEALIM2VFgE4-52" vertex="1">
          <mxGeometry y="204" width="270" height="40" as="geometry" />
        </mxCell>
        <mxCell id="S7l5mnK8BEALIM2VFgE4-60" value="+ mainImp(AstNodeMoudle*, bool): void&#xa;    输出" style="text;strokeColor=none;fillColor=none;align=left;verticalAlign=top;spacingLeft=4;spacingRight=4;overflow=hidden;rotatable=0;points=[[0,0.5],[1,0.5]];portConstraint=eastwest;" parent="S7l5mnK8BEALIM2VFgE4-52" vertex="1">
          <mxGeometry y="244" width="270" height="36" as="geometry" />
        </mxCell>
        <mxCell id="S7l5mnK8BEALIM2VFgE4-61" value="- emitImpTop(AstNodeMoudle*): void&#xa;    输出头文件包含" style="text;strokeColor=none;fillColor=none;align=left;verticalAlign=top;spacingLeft=4;spacingRight=4;overflow=hidden;rotatable=0;points=[[0,0.5],[1,0.5]];portConstraint=eastwest;" parent="S7l5mnK8BEALIM2VFgE4-52" vertex="1">
          <mxGeometry y="280" width="270" height="38" as="geometry" />
        </mxCell>
        <mxCell id="S7l5mnK8BEALIM2VFgE4-62" value="- emitImp(AstNodeMoudle*): void&#xa;    输出" style="text;strokeColor=none;fillColor=none;align=left;verticalAlign=top;spacingLeft=4;spacingRight=4;overflow=hidden;rotatable=0;points=[[0,0.5],[1,0.5]];portConstraint=eastwest;" parent="S7l5mnK8BEALIM2VFgE4-52" vertex="1">
          <mxGeometry y="318" width="270" height="40" as="geometry" />
        </mxCell>
        <mxCell id="S7l5mnK8BEALIM2VFgE4-63" value="Extends" style="endArrow=block;endSize=16;endFill=0;html=1;exitX=0.5;exitY=0;exitDx=0;exitDy=0;edgeStyle=orthogonalEdgeStyle;" parent="1" source="S7l5mnK8BEALIM2VFgE4-52" target="S7l5mnK8BEALIM2VFgE4-47" edge="1">
          <mxGeometry width="160" relative="1" as="geometry">
            <mxPoint x="2275" y="1086" as="sourcePoint" />
            <mxPoint x="2275" y="1019" as="targetPoint" />
          </mxGeometry>
        </mxCell>
        <mxCell id="S7l5mnK8BEALIM2VFgE4-64" value="AstVar" style="swimlane;fontStyle=1;align=center;verticalAlign=top;childLayout=stackLayout;horizontal=1;startSize=26;horizontalStack=0;resizeParent=1;resizeParentMax=0;resizeLast=0;collapsible=1;marginBottom=0;" parent="1" vertex="1">
          <mxGeometry x="460" y="670" width="180" height="268" as="geometry" />
        </mxCell>
        <mxCell id="S7l5mnK8BEALIM2VFgE4-65" value="- m_direction: VDirection" style="text;strokeColor=none;fillColor=none;align=left;verticalAlign=top;spacingLeft=4;spacingRight=4;overflow=hidden;rotatable=0;points=[[0,0.5],[1,0.5]];portConstraint=eastwest;" parent="S7l5mnK8BEALIM2VFgE4-64" vertex="1">
          <mxGeometry y="26" width="180" height="26" as="geometry" />
        </mxCell>
        <mxCell id="S7l5mnK8BEALIM2VFgE4-66" value="- m_declDirection: VDirection" style="text;strokeColor=none;fillColor=none;align=left;verticalAlign=top;spacingLeft=4;spacingRight=4;overflow=hidden;rotatable=0;points=[[0,0.5],[1,0.5]];portConstraint=eastwest;" parent="S7l5mnK8BEALIM2VFgE4-64" vertex="1">
          <mxGeometry y="52" width="180" height="26" as="geometry" />
        </mxCell>
        <mxCell id="S7l5mnK8BEALIM2VFgE4-67" value="" style="line;strokeWidth=1;fillColor=none;align=left;verticalAlign=middle;spacingTop=-1;spacingLeft=3;spacingRight=3;rotatable=0;labelPosition=right;points=[];portConstraint=eastwest;" parent="S7l5mnK8BEALIM2VFgE4-64" vertex="1">
          <mxGeometry y="78" width="180" height="8" as="geometry" />
        </mxCell>
        <mxCell id="S7l5mnK8BEALIM2VFgE4-68" value="+ isIO(): bool" style="text;strokeColor=none;fillColor=none;align=left;verticalAlign=top;spacingLeft=4;spacingRight=4;overflow=hidden;rotatable=0;points=[[0,0.5],[1,0.5]];portConstraint=eastwest;" parent="S7l5mnK8BEALIM2VFgE4-64" vertex="1">
          <mxGeometry y="86" width="180" height="26" as="geometry" />
        </mxCell>
        <mxCell id="S7l5mnK8BEALIM2VFgE4-69" value="+ isSc(): bool  // systemC" style="text;strokeColor=none;fillColor=none;align=left;verticalAlign=top;spacingLeft=4;spacingRight=4;overflow=hidden;rotatable=0;points=[[0,0.5],[1,0.5]];portConstraint=eastwest;" parent="S7l5mnK8BEALIM2VFgE4-64" vertex="1">
          <mxGeometry y="112" width="180" height="26" as="geometry" />
        </mxCell>
        <mxCell id="S7l5mnK8BEALIM2VFgE4-70" value="+ basicp(): AstBasicDType*" style="text;strokeColor=none;fillColor=none;align=left;verticalAlign=top;spacingLeft=4;spacingRight=4;overflow=hidden;rotatable=0;points=[[0,0.5],[1,0.5]];portConstraint=eastwest;" parent="S7l5mnK8BEALIM2VFgE4-64" vertex="1">
          <mxGeometry y="138" width="180" height="26" as="geometry" />
        </mxCell>
        <mxCell id="S7l5mnK8BEALIM2VFgE4-71" value="+ isInoutish(): bool" style="text;strokeColor=none;fillColor=none;align=left;verticalAlign=top;spacingLeft=4;spacingRight=4;overflow=hidden;rotatable=0;points=[[0,0.5],[1,0.5]];portConstraint=eastwest;" parent="S7l5mnK8BEALIM2VFgE4-64" vertex="1">
          <mxGeometry y="164" width="180" height="26" as="geometry" />
        </mxCell>
        <mxCell id="S7l5mnK8BEALIM2VFgE4-72" value="+ isNonOutput(): bool" style="text;strokeColor=none;fillColor=none;align=left;verticalAlign=top;spacingLeft=4;spacingRight=4;overflow=hidden;rotatable=0;points=[[0,0.5],[1,0.5]];portConstraint=eastwest;" parent="S7l5mnK8BEALIM2VFgE4-64" vertex="1">
          <mxGeometry y="190" width="180" height="26" as="geometry" />
        </mxCell>
        <mxCell id="S7l5mnK8BEALIM2VFgE4-73" value="+ isWritable(): bool" style="text;strokeColor=none;fillColor=none;align=left;verticalAlign=top;spacingLeft=4;spacingRight=4;overflow=hidden;rotatable=0;points=[[0,0.5],[1,0.5]];portConstraint=eastwest;" parent="S7l5mnK8BEALIM2VFgE4-64" vertex="1">
          <mxGeometry y="216" width="180" height="26" as="geometry" />
        </mxCell>
        <mxCell id="S7l5mnK8BEALIM2VFgE4-74" value="+ isReadOnly(): bool" style="text;strokeColor=none;fillColor=none;align=left;verticalAlign=top;spacingLeft=4;spacingRight=4;overflow=hidden;rotatable=0;points=[[0,0.5],[1,0.5]];portConstraint=eastwest;" parent="S7l5mnK8BEALIM2VFgE4-64" vertex="1">
          <mxGeometry y="242" width="180" height="26" as="geometry" />
        </mxCell>
        <mxCell id="S7l5mnK8BEALIM2VFgE4-75" value="Extends" style="endArrow=block;endSize=16;endFill=0;html=1;edgeStyle=orthogonalEdgeStyle;exitX=0.5;exitY=0;exitDx=0;exitDy=0;" parent="1" source="S7l5mnK8BEALIM2VFgE4-64" target="S7l5mnK8BEALIM2VFgE4-25" edge="1">
          <mxGeometry width="160" relative="1" as="geometry">
            <mxPoint x="630" y="750" as="sourcePoint" />
            <mxPoint x="1415" y="586" as="targetPoint" />
          </mxGeometry>
        </mxCell>
        <mxCell id="S7l5mnK8BEALIM2VFgE4-76" value="VDirection (final)" style="swimlane;fontStyle=1;align=center;verticalAlign=top;childLayout=stackLayout;horizontal=1;startSize=26;horizontalStack=0;resizeParent=1;resizeParentMax=0;resizeLast=0;collapsible=1;marginBottom=0;" parent="1" vertex="1">
          <mxGeometry x="300" y="440" width="160" height="182" as="geometry" />
        </mxCell>
        <mxCell id="S7l5mnK8BEALIM2VFgE4-77" value="+ en: enum {NONE, INPUT, &#xa;    OUTPUT, INOUT, &#xa;    REF, CONSTREF}" style="text;strokeColor=none;fillColor=none;align=left;verticalAlign=top;spacingLeft=4;spacingRight=4;overflow=hidden;rotatable=0;points=[[0,0.5],[1,0.5]];portConstraint=eastwest;" parent="S7l5mnK8BEALIM2VFgE4-76" vertex="1">
          <mxGeometry y="26" width="160" height="44" as="geometry" />
        </mxCell>
        <mxCell id="S7l5mnK8BEALIM2VFgE4-78" value="" style="line;strokeWidth=1;fillColor=none;align=left;verticalAlign=middle;spacingTop=-1;spacingLeft=3;spacingRight=3;rotatable=0;labelPosition=right;points=[];portConstraint=eastwest;" parent="S7l5mnK8BEALIM2VFgE4-76" vertex="1">
          <mxGeometry y="70" width="160" height="8" as="geometry" />
        </mxCell>
        <mxCell id="S7l5mnK8BEALIM2VFgE4-79" value="+ isInoutish(): bool" style="text;strokeColor=none;fillColor=none;align=left;verticalAlign=top;spacingLeft=4;spacingRight=4;overflow=hidden;rotatable=0;points=[[0,0.5],[1,0.5]];portConstraint=eastwest;" parent="S7l5mnK8BEALIM2VFgE4-76" vertex="1">
          <mxGeometry y="78" width="160" height="26" as="geometry" />
        </mxCell>
        <mxCell id="S7l5mnK8BEALIM2VFgE4-80" value="+ isWritable(): bool" style="text;strokeColor=none;fillColor=none;align=left;verticalAlign=top;spacingLeft=4;spacingRight=4;overflow=hidden;rotatable=0;points=[[0,0.5],[1,0.5]];portConstraint=eastwest;" parent="S7l5mnK8BEALIM2VFgE4-76" vertex="1">
          <mxGeometry y="104" width="160" height="26" as="geometry" />
        </mxCell>
        <mxCell id="S7l5mnK8BEALIM2VFgE4-81" value="+ isNonOutput(): bool" style="text;strokeColor=none;fillColor=none;align=left;verticalAlign=top;spacingLeft=4;spacingRight=4;overflow=hidden;rotatable=0;points=[[0,0.5],[1,0.5]];portConstraint=eastwest;" parent="S7l5mnK8BEALIM2VFgE4-76" vertex="1">
          <mxGeometry y="130" width="160" height="26" as="geometry" />
        </mxCell>
        <mxCell id="S7l5mnK8BEALIM2VFgE4-82" value="+ isReadOnly(): bool" style="text;strokeColor=none;fillColor=none;align=left;verticalAlign=top;spacingLeft=4;spacingRight=4;overflow=hidden;rotatable=0;points=[[0,0.5],[1,0.5]];portConstraint=eastwest;" parent="S7l5mnK8BEALIM2VFgE4-76" vertex="1">
          <mxGeometry y="156" width="160" height="26" as="geometry" />
        </mxCell>
        <mxCell id="S7l5mnK8BEALIM2VFgE4-83" value="1" style="endArrow=open;html=1;endSize=12;startArrow=diamondThin;startSize=14;startFill=0;edgeStyle=orthogonalEdgeStyle;align=left;verticalAlign=bottom;entryX=0.5;entryY=1;entryDx=0;entryDy=0;" parent="1" source="S7l5mnK8BEALIM2VFgE4-65" target="S7l5mnK8BEALIM2VFgE4-76" edge="1">
          <mxGeometry x="-0.8238" y="-9" relative="1" as="geometry">
            <mxPoint x="320" y="899" as="sourcePoint" />
            <mxPoint x="550" y="870" as="targetPoint" />
            <mxPoint as="offset" />
          </mxGeometry>
        </mxCell>
        <mxCell id="S7l5mnK8BEALIM2VFgE4-84" value="1" style="endArrow=open;html=1;endSize=12;startArrow=diamondThin;startSize=14;startFill=0;edgeStyle=orthogonalEdgeStyle;align=left;verticalAlign=bottom;" parent="1" source="S7l5mnK8BEALIM2VFgE4-66" target="S7l5mnK8BEALIM2VFgE4-76" edge="1">
          <mxGeometry x="-0.8421" y="-5" relative="1" as="geometry">
            <mxPoint x="470" y="719.0344827586207" as="sourcePoint" />
            <mxPoint x="380.31999999999994" y="569.3240000000001" as="targetPoint" />
            <mxPoint as="offset" />
          </mxGeometry>
        </mxCell>
        <mxCell id="S7l5mnK8BEALIM2VFgE4-85" style="edgeStyle=orthogonalEdgeStyle;rounded=0;orthogonalLoop=1;jettySize=auto;html=1;entryX=0;entryY=0.5;entryDx=0;entryDy=0;" parent="1" source="S7l5mnK8BEALIM2VFgE4-71" target="S7l5mnK8BEALIM2VFgE4-79" edge="1">
          <mxGeometry relative="1" as="geometry" />
        </mxCell>
        <mxCell id="S7l5mnK8BEALIM2VFgE4-86" value="AstFunc (final)" style="swimlane;fontStyle=1;align=center;verticalAlign=top;childLayout=stackLayout;horizontal=1;startSize=26;horizontalStack=0;resizeParent=1;resizeParentMax=0;resizeLast=0;collapsible=1;marginBottom=0;" parent="1" vertex="1">
          <mxGeometry x="460" y="1020" width="180" height="86" as="geometry" />
        </mxCell>
        <mxCell id="S7l5mnK8BEALIM2VFgE4-87" value="- " style="text;strokeColor=none;fillColor=none;align=left;verticalAlign=top;spacingLeft=4;spacingRight=4;overflow=hidden;rotatable=0;points=[[0,0.5],[1,0.5]];portConstraint=eastwest;" parent="S7l5mnK8BEALIM2VFgE4-86" vertex="1">
          <mxGeometry y="26" width="180" height="26" as="geometry" />
        </mxCell>
        <mxCell id="S7l5mnK8BEALIM2VFgE4-88" value="" style="line;strokeWidth=1;fillColor=none;align=left;verticalAlign=middle;spacingTop=-1;spacingLeft=3;spacingRight=3;rotatable=0;labelPosition=right;points=[];portConstraint=eastwest;" parent="S7l5mnK8BEALIM2VFgE4-86" vertex="1">
          <mxGeometry y="52" width="180" height="8" as="geometry" />
        </mxCell>
        <mxCell id="S7l5mnK8BEALIM2VFgE4-89" value="+ " style="text;strokeColor=none;fillColor=none;align=left;verticalAlign=top;spacingLeft=4;spacingRight=4;overflow=hidden;rotatable=0;points=[[0,0.5],[1,0.5]];portConstraint=eastwest;" parent="S7l5mnK8BEALIM2VFgE4-86" vertex="1">
          <mxGeometry y="60" width="180" height="26" as="geometry" />
        </mxCell>
        <mxCell id="S7l5mnK8BEALIM2VFgE4-90" value="Extends" style="endArrow=block;endSize=16;endFill=0;html=1;edgeStyle=orthogonalEdgeStyle;exitX=0.5;exitY=0;exitDx=0;exitDy=0;" parent="1" source="S7l5mnK8BEALIM2VFgE4-86" target="S7l5mnK8BEALIM2VFgE4-25" edge="1">
          <mxGeometry width="160" relative="1" as="geometry">
            <mxPoint x="280" y="750" as="sourcePoint" />
            <mxPoint x="1415" y="586" as="targetPoint" />
          </mxGeometry>
        </mxCell>
        <mxCell id="S7l5mnK8BEALIM2VFgE4-92" value="AstNodeStmt" style="swimlane;fontStyle=1;align=center;verticalAlign=top;childLayout=stackLayout;horizontal=1;startSize=26;horizontalStack=0;resizeParent=1;resizeParentMax=0;resizeLast=0;collapsible=1;marginBottom=0;" parent="1" vertex="1">
          <mxGeometry x="1315" y="1040" width="180" height="86" as="geometry" />
        </mxCell>
        <mxCell id="S7l5mnK8BEALIM2VFgE4-93" value="- " style="text;strokeColor=none;fillColor=none;align=left;verticalAlign=top;spacingLeft=4;spacingRight=4;overflow=hidden;rotatable=0;points=[[0,0.5],[1,0.5]];portConstraint=eastwest;" parent="S7l5mnK8BEALIM2VFgE4-92" vertex="1">
          <mxGeometry y="26" width="180" height="26" as="geometry" />
        </mxCell>
        <mxCell id="S7l5mnK8BEALIM2VFgE4-94" value="" style="line;strokeWidth=1;fillColor=none;align=left;verticalAlign=middle;spacingTop=-1;spacingLeft=3;spacingRight=3;rotatable=0;labelPosition=right;points=[];portConstraint=eastwest;" parent="S7l5mnK8BEALIM2VFgE4-92" vertex="1">
          <mxGeometry y="52" width="180" height="8" as="geometry" />
        </mxCell>
        <mxCell id="S7l5mnK8BEALIM2VFgE4-95" value="+ " style="text;strokeColor=none;fillColor=none;align=left;verticalAlign=top;spacingLeft=4;spacingRight=4;overflow=hidden;rotatable=0;points=[[0,0.5],[1,0.5]];portConstraint=eastwest;" parent="S7l5mnK8BEALIM2VFgE4-92" vertex="1">
          <mxGeometry y="60" width="180" height="26" as="geometry" />
        </mxCell>
        <mxCell id="S7l5mnK8BEALIM2VFgE4-96" value="AstNodeAssign" style="swimlane;fontStyle=1;align=center;verticalAlign=top;childLayout=stackLayout;horizontal=1;startSize=26;horizontalStack=0;resizeParent=1;resizeParentMax=0;resizeLast=0;collapsible=1;marginBottom=0;" parent="1" vertex="1">
          <mxGeometry x="1315" y="1210" width="180" height="86" as="geometry" />
        </mxCell>
        <mxCell id="S7l5mnK8BEALIM2VFgE4-97" value="- " style="text;strokeColor=none;fillColor=none;align=left;verticalAlign=top;spacingLeft=4;spacingRight=4;overflow=hidden;rotatable=0;points=[[0,0.5],[1,0.5]];portConstraint=eastwest;" parent="S7l5mnK8BEALIM2VFgE4-96" vertex="1">
          <mxGeometry y="26" width="180" height="26" as="geometry" />
        </mxCell>
        <mxCell id="S7l5mnK8BEALIM2VFgE4-98" value="" style="line;strokeWidth=1;fillColor=none;align=left;verticalAlign=middle;spacingTop=-1;spacingLeft=3;spacingRight=3;rotatable=0;labelPosition=right;points=[];portConstraint=eastwest;" parent="S7l5mnK8BEALIM2VFgE4-96" vertex="1">
          <mxGeometry y="52" width="180" height="8" as="geometry" />
        </mxCell>
        <mxCell id="S7l5mnK8BEALIM2VFgE4-99" value="+ " style="text;strokeColor=none;fillColor=none;align=left;verticalAlign=top;spacingLeft=4;spacingRight=4;overflow=hidden;rotatable=0;points=[[0,0.5],[1,0.5]];portConstraint=eastwest;" parent="S7l5mnK8BEALIM2VFgE4-96" vertex="1">
          <mxGeometry y="60" width="180" height="26" as="geometry" />
        </mxCell>
        <mxCell id="S7l5mnK8BEALIM2VFgE4-100" value="Extends" style="endArrow=block;endSize=16;endFill=0;html=1;edgeStyle=orthogonalEdgeStyle;" parent="1" source="S7l5mnK8BEALIM2VFgE4-96" target="S7l5mnK8BEALIM2VFgE4-92" edge="1">
          <mxGeometry width="160" relative="1" as="geometry">
            <mxPoint x="945" y="1180" as="sourcePoint" />
            <mxPoint x="2080" y="665.9999999999998" as="targetPoint" />
          </mxGeometry>
        </mxCell>
        <mxCell id="S7l5mnK8BEALIM2VFgE4-101" value="Extends" style="endArrow=block;endSize=16;endFill=0;html=1;edgeStyle=orthogonalEdgeStyle;exitX=0.5;exitY=0;exitDx=0;exitDy=0;" parent="1" source="S7l5mnK8BEALIM2VFgE4-92" target="S7l5mnK8BEALIM2VFgE4-25" edge="1">
          <mxGeometry width="160" relative="1" as="geometry">
            <mxPoint x="750" y="1140" as="sourcePoint" />
            <mxPoint x="750" y="1055.9999999999998" as="targetPoint" />
          </mxGeometry>
        </mxCell>
        <mxCell id="S7l5mnK8BEALIM2VFgE4-102" value="Call" style="endArrow=classic;html=1;edgeStyle=orthogonalEdgeStyle;exitX=1;exitY=0.5;exitDx=0;exitDy=0;" parent="1" source="S7l5mnK8BEALIM2VFgE4-50" target="S7l5mnK8BEALIM2VFgE4-91" edge="1">
          <mxGeometry width="50" height="50" relative="1" as="geometry">
            <mxPoint x="3170" y="240" as="sourcePoint" />
            <mxPoint x="2540" y="402.94117647058806" as="targetPoint" />
          </mxGeometry>
        </mxCell>
        <mxCell id="S7l5mnK8BEALIM2VFgE4-104" value="Call" style="endArrow=classic;html=1;edgeStyle=orthogonalEdgeStyle;entryX=1;entryY=0.5;entryDx=0;entryDy=0;" parent="1" source="S7l5mnK8BEALIM2VFgE4-91" target="S7l5mnK8BEALIM2VFgE4-103" edge="1">
          <mxGeometry width="50" height="50" relative="1" as="geometry">
            <mxPoint x="2159.999999999999" y="410.0000000000001" as="sourcePoint" />
            <mxPoint x="1530.000000000001" y="573.0344827586207" as="targetPoint" />
          </mxGeometry>
        </mxCell>
        <mxCell id="S7l5mnK8BEALIM2VFgE4-106" value="AstAssign (final)" style="swimlane;fontStyle=1;align=center;verticalAlign=top;childLayout=stackLayout;horizontal=1;startSize=26;horizontalStack=0;resizeParent=1;resizeParentMax=0;resizeLast=0;collapsible=1;marginBottom=0;" parent="1" vertex="1">
          <mxGeometry x="1315" y="1370" width="180" height="112" as="geometry" />
        </mxCell>
        <mxCell id="S7l5mnK8BEALIM2VFgE4-107" value="- " style="text;strokeColor=none;fillColor=none;align=left;verticalAlign=top;spacingLeft=4;spacingRight=4;overflow=hidden;rotatable=0;points=[[0,0.5],[1,0.5]];portConstraint=eastwest;" parent="S7l5mnK8BEALIM2VFgE4-106" vertex="1">
          <mxGeometry y="26" width="180" height="26" as="geometry" />
        </mxCell>
        <mxCell id="S7l5mnK8BEALIM2VFgE4-108" value="" style="line;strokeWidth=1;fillColor=none;align=left;verticalAlign=middle;spacingTop=-1;spacingLeft=3;spacingRight=3;rotatable=0;labelPosition=right;points=[];portConstraint=eastwest;" parent="S7l5mnK8BEALIM2VFgE4-106" vertex="1">
          <mxGeometry y="52" width="180" height="8" as="geometry" />
        </mxCell>
        <mxCell id="S7l5mnK8BEALIM2VFgE4-111" value="+ accept(AstNVisitor &amp;): void" style="text;strokeColor=none;fillColor=none;align=left;verticalAlign=top;spacingLeft=4;spacingRight=4;overflow=hidden;rotatable=0;points=[[0,0.5],[1,0.5]];portConstraint=eastwest;" parent="S7l5mnK8BEALIM2VFgE4-106" vertex="1">
          <mxGeometry y="60" width="180" height="26" as="geometry" />
        </mxCell>
        <mxCell id="S7l5mnK8BEALIM2VFgE4-109" value="+ " style="text;strokeColor=none;fillColor=none;align=left;verticalAlign=top;spacingLeft=4;spacingRight=4;overflow=hidden;rotatable=0;points=[[0,0.5],[1,0.5]];portConstraint=eastwest;" parent="S7l5mnK8BEALIM2VFgE4-106" vertex="1">
          <mxGeometry y="86" width="180" height="26" as="geometry" />
        </mxCell>
        <mxCell id="S7l5mnK8BEALIM2VFgE4-110" value="Extends" style="endArrow=block;endSize=16;endFill=0;html=1;edgeStyle=orthogonalEdgeStyle;exitX=0.5;exitY=0;exitDx=0;exitDy=0;" parent="1" source="S7l5mnK8BEALIM2VFgE4-106" target="S7l5mnK8BEALIM2VFgE4-96" edge="1">
          <mxGeometry width="160" relative="1" as="geometry">
            <mxPoint x="1415.000000000001" y="1220" as="sourcePoint" />
            <mxPoint x="1160" y="1250" as="targetPoint" />
          </mxGeometry>
        </mxCell>
        <mxCell id="S7l5mnK8BEALIM2VFgE4-112" value="" style="endArrow=none;html=1;rounded=0;align=center;verticalAlign=top;endFill=0;labelBackgroundColor=none;endSize=6;startArrow=oval;startFill=1;edgeStyle=orthogonalEdgeStyle;entryX=0;entryY=0.5;entryDx=0;entryDy=0;entryPerimeter=0;" parent="1" source="S7l5mnK8BEALIM2VFgE4-111" target="S7l5mnK8BEALIM2VFgE4-41" edge="1">
          <mxGeometry relative="1" as="geometry">
            <mxPoint x="1620" y="1425.66" as="sourcePoint" />
            <mxPoint x="1710" y="1425.66" as="targetPoint" />
          </mxGeometry>
        </mxCell>
        <mxCell id="yRCZEbvc07IkdjNfKhwh-1" style="edgeStyle=orthogonalEdgeStyle;rounded=0;jumpSize=6;orthogonalLoop=1;jettySize=auto;html=1;exitX=0.5;exitY=1;exitDx=0;exitDy=0;fontColor=#FF0000;strokeWidth=1;" edge="1" parent="1" source="yRCZEbvc07IkdjNfKhwh-2" target="yRCZEbvc07IkdjNfKhwh-5">
          <mxGeometry relative="1" as="geometry" />
        </mxCell>
        <mxCell id="yRCZEbvc07IkdjNfKhwh-2" value="V3EmitC::emitc()" style="rounded=1;whiteSpace=wrap;html=1;fontSize=12;glass=0;strokeWidth=1;shadow=0;" vertex="1" parent="1">
          <mxGeometry x="113.06000000000006" y="1310" width="120" height="40" as="geometry" />
        </mxCell>
        <mxCell id="yRCZEbvc07IkdjNfKhwh-3" value="N" style="edgeStyle=orthogonalEdgeStyle;rounded=0;jumpSize=6;orthogonalLoop=1;jettySize=auto;html=1;exitX=0.5;exitY=1;exitDx=0;exitDy=0;entryX=0.5;entryY=0;entryDx=0;entryDy=0;fontColor=#FF0000;strokeWidth=1;" edge="1" parent="1" source="yRCZEbvc07IkdjNfKhwh-5" target="yRCZEbvc07IkdjNfKhwh-8">
          <mxGeometry relative="1" as="geometry" />
        </mxCell>
        <mxCell id="yRCZEbvc07IkdjNfKhwh-4" value="Y" style="edgeStyle=orthogonalEdgeStyle;rounded=0;jumpSize=6;orthogonalLoop=1;jettySize=auto;html=1;exitX=1;exitY=0.5;exitDx=0;exitDy=0;fontColor=#FF0000;strokeColor=#000000;strokeWidth=1;" edge="1" parent="1" source="yRCZEbvc07IkdjNfKhwh-5" target="yRCZEbvc07IkdjNfKhwh-15">
          <mxGeometry relative="1" as="geometry">
            <mxPoint x="313.0600000000002" y="1411.142857142857" as="targetPoint" />
          </mxGeometry>
        </mxCell>
        <mxCell id="yRCZEbvc07IkdjNfKhwh-5" value="遍历v3Global所有module" style="rhombus;whiteSpace=wrap;html=1;rounded=0;shadow=0;glass=0;strokeWidth=1;" vertex="1" parent="1">
          <mxGeometry x="113.06000000000006" y="1370" width="120" height="40" as="geometry" />
        </mxCell>
        <mxCell id="yRCZEbvc07IkdjNfKhwh-6" value="N" style="edgeStyle=orthogonalEdgeStyle;rounded=0;jumpSize=6;orthogonalLoop=1;jettySize=auto;html=1;exitX=0.5;exitY=1;exitDx=0;exitDy=0;entryX=0.5;entryY=0;entryDx=0;entryDy=0;fontColor=#FF0000;strokeWidth=1;" edge="1" parent="1" source="yRCZEbvc07IkdjNfKhwh-8" target="yRCZEbvc07IkdjNfKhwh-10">
          <mxGeometry relative="1" as="geometry" />
        </mxCell>
        <mxCell id="yRCZEbvc07IkdjNfKhwh-7" value="Y" style="edgeStyle=orthogonalEdgeStyle;rounded=0;jumpSize=6;orthogonalLoop=1;jettySize=auto;html=1;exitX=0;exitY=0.5;exitDx=0;exitDy=0;entryX=0;entryY=0.5;entryDx=0;entryDy=0;fontColor=#FF0000;strokeColor=#000000;strokeWidth=1;" edge="1" parent="1" source="yRCZEbvc07IkdjNfKhwh-8" target="yRCZEbvc07IkdjNfKhwh-5">
          <mxGeometry relative="1" as="geometry" />
        </mxCell>
        <mxCell id="yRCZEbvc07IkdjNfKhwh-8" value="是AstClass类型？" style="rhombus;whiteSpace=wrap;html=1;rounded=0;shadow=0;glass=0;strokeWidth=1;" vertex="1" parent="1">
          <mxGeometry x="113.06000000000006" y="1446" width="120" height="39" as="geometry" />
        </mxCell>
        <mxCell id="yRCZEbvc07IkdjNfKhwh-9" style="edgeStyle=orthogonalEdgeStyle;rounded=0;jumpSize=6;orthogonalLoop=1;jettySize=auto;html=1;exitX=0.5;exitY=1;exitDx=0;exitDy=0;entryX=0.5;entryY=0;entryDx=0;entryDy=0;fontColor=#FF0000;strokeColor=#000000;strokeWidth=1;" edge="1" parent="1" source="yRCZEbvc07IkdjNfKhwh-10" target="yRCZEbvc07IkdjNfKhwh-12">
          <mxGeometry relative="1" as="geometry" />
        </mxCell>
        <mxCell id="yRCZEbvc07IkdjNfKhwh-10" value="&lt;span&gt;EmitCImp::mainInt(nodep)&lt;/span&gt;" style="rounded=0;whiteSpace=wrap;html=1;shadow=0;glass=0;strokeWidth=1;" vertex="1" parent="1">
          <mxGeometry x="93.06000000000006" y="1529" width="160" height="40" as="geometry" />
        </mxCell>
        <mxCell id="yRCZEbvc07IkdjNfKhwh-11" style="edgeStyle=orthogonalEdgeStyle;rounded=0;jumpSize=6;orthogonalLoop=1;jettySize=auto;html=1;exitX=0.5;exitY=1;exitDx=0;exitDy=0;entryX=0.5;entryY=0;entryDx=0;entryDy=0;fontColor=#FF0000;strokeColor=#000000;strokeWidth=1;" edge="1" parent="1" source="yRCZEbvc07IkdjNfKhwh-12" target="yRCZEbvc07IkdjNfKhwh-14">
          <mxGeometry relative="1" as="geometry" />
        </mxCell>
        <mxCell id="yRCZEbvc07IkdjNfKhwh-12" value="&lt;span&gt;EmitCImp::mainImp(nodep, true)&lt;/span&gt;" style="rounded=0;whiteSpace=wrap;html=1;shadow=0;glass=0;strokeWidth=1;" vertex="1" parent="1">
          <mxGeometry x="93.06000000000006" y="1589" width="160" height="40" as="geometry" />
        </mxCell>
        <mxCell id="yRCZEbvc07IkdjNfKhwh-13" style="edgeStyle=orthogonalEdgeStyle;rounded=0;jumpSize=6;orthogonalLoop=1;jettySize=auto;html=1;exitX=0.5;exitY=1;exitDx=0;exitDy=0;fontColor=#FF0000;strokeColor=#000000;strokeWidth=1;entryX=0;entryY=0.5;entryDx=0;entryDy=0;" edge="1" parent="1" source="yRCZEbvc07IkdjNfKhwh-14" target="yRCZEbvc07IkdjNfKhwh-5">
          <mxGeometry relative="1" as="geometry">
            <Array as="points">
              <mxPoint x="173.06000000000006" y="1710" />
              <mxPoint x="63.06000000000006" y="1710" />
              <mxPoint x="63.06000000000006" y="1390" />
            </Array>
          </mxGeometry>
        </mxCell>
        <mxCell id="yRCZEbvc07IkdjNfKhwh-14" value="&lt;span&gt;EmitCImp::mainImp(nodep, false)&lt;/span&gt;" style="rounded=0;whiteSpace=wrap;html=1;shadow=0;glass=0;strokeWidth=1;" vertex="1" parent="1">
          <mxGeometry x="93.06000000000006" y="1649" width="160" height="40" as="geometry" />
        </mxCell>
        <mxCell id="yRCZEbvc07IkdjNfKhwh-15" value="end" style="strokeWidth=1;html=1;shape=mxgraph.flowchart.terminator;whiteSpace=wrap;rounded=0;shadow=0;glass=0;" vertex="1" parent="1">
          <mxGeometry x="258.06000000000006" y="1430" width="50" height="30" as="geometry" />
        </mxCell>
        <mxCell id="yRCZEbvc07IkdjNfKhwh-16" style="edgeStyle=orthogonalEdgeStyle;rounded=0;jumpSize=6;orthogonalLoop=1;jettySize=auto;html=1;exitX=0.5;exitY=1;exitDx=0;exitDy=0;entryX=0.5;entryY=0;entryDx=0;entryDy=0;fontColor=#FF0000;strokeColor=#000000;strokeWidth=1;" edge="1" parent="1" source="yRCZEbvc07IkdjNfKhwh-17" target="yRCZEbvc07IkdjNfKhwh-19">
          <mxGeometry relative="1" as="geometry" />
        </mxCell>
        <mxCell id="yRCZEbvc07IkdjNfKhwh-17" value="EmitCImp::mainInt( AstNodeModule* modp )&lt;br&gt;生成头文件" style="rounded=1;whiteSpace=wrap;html=1;fontSize=12;glass=0;strokeWidth=1;shadow=0;" vertex="1" parent="1">
          <mxGeometry x="378.0600000000002" y="1310" width="140" height="40" as="geometry" />
        </mxCell>
        <mxCell id="yRCZEbvc07IkdjNfKhwh-18" style="edgeStyle=orthogonalEdgeStyle;rounded=0;jumpSize=6;orthogonalLoop=1;jettySize=auto;html=1;exitX=0.5;exitY=1;exitDx=0;exitDy=0;entryX=0.5;entryY=0;entryDx=0;entryDy=0;fontColor=#FF0000;strokeColor=#000000;strokeWidth=1;" edge="1" parent="1" source="yRCZEbvc07IkdjNfKhwh-19" target="yRCZEbvc07IkdjNfKhwh-21">
          <mxGeometry relative="1" as="geometry" />
        </mxCell>
        <mxCell id="yRCZEbvc07IkdjNfKhwh-19" value="newOutCFile(modp, false, false)" style="rounded=0;whiteSpace=wrap;html=1;shadow=0;glass=0;strokeWidth=1;" vertex="1" parent="1">
          <mxGeometry x="380.5600000000002" y="1370" width="135" height="30" as="geometry" />
        </mxCell>
        <mxCell id="yRCZEbvc07IkdjNfKhwh-20" style="edgeStyle=orthogonalEdgeStyle;rounded=0;jumpSize=6;orthogonalLoop=1;jettySize=auto;html=1;exitX=0.5;exitY=1;exitDx=0;exitDy=0;entryX=0.5;entryY=0;entryDx=0;entryDy=0;fontColor=#FF0000;strokeColor=#000000;strokeWidth=1;" edge="1" parent="1" source="yRCZEbvc07IkdjNfKhwh-21" target="yRCZEbvc07IkdjNfKhwh-23">
          <mxGeometry relative="1" as="geometry" />
        </mxCell>
        <mxCell id="yRCZEbvc07IkdjNfKhwh-21" value="emitIntTop(modp)" style="rounded=0;whiteSpace=wrap;html=1;shadow=0;glass=0;strokeWidth=1;" vertex="1" parent="1">
          <mxGeometry x="380.5600000000002" y="1420" width="135" height="30" as="geometry" />
        </mxCell>
        <mxCell id="yRCZEbvc07IkdjNfKhwh-22" style="edgeStyle=orthogonalEdgeStyle;rounded=0;jumpSize=6;orthogonalLoop=1;jettySize=auto;html=1;exitX=0.5;exitY=1;exitDx=0;exitDy=0;entryX=0.5;entryY=0;entryDx=0;entryDy=0;fontColor=#FF0000;strokeColor=#000000;strokeWidth=1;" edge="1" parent="1" source="yRCZEbvc07IkdjNfKhwh-23" target="yRCZEbvc07IkdjNfKhwh-28">
          <mxGeometry relative="1" as="geometry" />
        </mxCell>
        <mxCell id="yRCZEbvc07IkdjNfKhwh-23" value="emitInt(modp)" style="rounded=0;whiteSpace=wrap;html=1;shadow=0;glass=0;strokeWidth=1;" vertex="1" parent="1">
          <mxGeometry x="380.5600000000002" y="1470" width="135" height="30" as="geometry" />
        </mxCell>
        <mxCell id="yRCZEbvc07IkdjNfKhwh-24" style="edgeStyle=orthogonalEdgeStyle;rounded=0;jumpSize=6;orthogonalLoop=1;jettySize=auto;html=1;exitX=0.5;exitY=1;exitDx=0;exitDy=0;entryX=0.5;entryY=0;entryDx=0;entryDy=0;fontColor=#FF0000;strokeColor=#000000;strokeWidth=1;" edge="1" parent="1" source="yRCZEbvc07IkdjNfKhwh-25" target="yRCZEbvc07IkdjNfKhwh-29">
          <mxGeometry relative="1" as="geometry" />
        </mxCell>
        <mxCell id="yRCZEbvc07IkdjNfKhwh-25" value="emitInt(packagep-&amp;gt;classp())" style="rounded=0;whiteSpace=wrap;html=1;shadow=0;glass=0;strokeWidth=1;" vertex="1" parent="1">
          <mxGeometry x="371.8100000000002" y="1599" width="152.5" height="30" as="geometry" />
        </mxCell>
        <mxCell id="yRCZEbvc07IkdjNfKhwh-26" value="Y" style="edgeStyle=orthogonalEdgeStyle;rounded=0;jumpSize=6;orthogonalLoop=1;jettySize=auto;html=1;exitX=0.5;exitY=1;exitDx=0;exitDy=0;entryX=0.5;entryY=0;entryDx=0;entryDy=0;fontColor=#FF0000;strokeColor=#000000;strokeWidth=1;" edge="1" parent="1" source="yRCZEbvc07IkdjNfKhwh-28" target="yRCZEbvc07IkdjNfKhwh-25">
          <mxGeometry relative="1" as="geometry" />
        </mxCell>
        <mxCell id="yRCZEbvc07IkdjNfKhwh-27" value="N" style="edgeStyle=orthogonalEdgeStyle;rounded=0;jumpSize=6;orthogonalLoop=1;jettySize=auto;html=1;entryX=1;entryY=0.5;entryDx=0;entryDy=0;fontColor=#FF0000;strokeColor=#000000;strokeWidth=1;exitX=1;exitY=0.5;exitDx=0;exitDy=0;" edge="1" parent="1" source="yRCZEbvc07IkdjNfKhwh-28" target="yRCZEbvc07IkdjNfKhwh-29">
          <mxGeometry relative="1" as="geometry" />
        </mxCell>
        <mxCell id="yRCZEbvc07IkdjNfKhwh-28" value="是AstClassPackage类型？" style="rhombus;whiteSpace=wrap;html=1;rounded=0;shadow=0;glass=0;strokeWidth=1;" vertex="1" parent="1">
          <mxGeometry x="388.0600000000002" y="1520" width="120" height="39" as="geometry" />
        </mxCell>
        <mxCell id="yRCZEbvc07IkdjNfKhwh-29" value="ofp()-&amp;gt;putsEndGuard()" style="rounded=0;whiteSpace=wrap;html=1;shadow=0;glass=0;strokeWidth=1;" vertex="1" parent="1">
          <mxGeometry x="380.5600000000002" y="1649" width="135" height="30" as="geometry" />
        </mxCell>
        <mxCell id="yRCZEbvc07IkdjNfKhwh-30" style="edgeStyle=orthogonalEdgeStyle;rounded=0;jumpSize=6;orthogonalLoop=1;jettySize=auto;html=1;exitX=0.5;exitY=1;exitDx=0;exitDy=0;entryX=0.5;entryY=0;entryDx=0;entryDy=0;fontSize=4;fontColor=#FF0000;strokeColor=#000000;strokeWidth=1;" edge="1" parent="1" source="yRCZEbvc07IkdjNfKhwh-31" target="yRCZEbvc07IkdjNfKhwh-34">
          <mxGeometry relative="1" as="geometry" />
        </mxCell>
        <mxCell id="yRCZEbvc07IkdjNfKhwh-31" value="EmitCImp::mainImp( AstNodeModule* modp, bool slow)&lt;br&gt;生成源文件" style="rounded=1;whiteSpace=wrap;html=1;fontSize=12;glass=0;strokeWidth=1;shadow=0;" vertex="1" parent="1">
          <mxGeometry x="573.0600000000002" y="1310" width="190" height="40" as="geometry" />
        </mxCell>
        <mxCell id="yRCZEbvc07IkdjNfKhwh-32" value="EmitCImp::emitInt( AstNodeModule* modp )" style="rounded=1;whiteSpace=wrap;html=1;fontSize=12;glass=0;strokeWidth=1;shadow=0;" vertex="1" parent="1">
          <mxGeometry x="378.0600000000002" y="1720" width="140" height="40" as="geometry" />
        </mxCell>
        <mxCell id="yRCZEbvc07IkdjNfKhwh-33" style="edgeStyle=orthogonalEdgeStyle;rounded=0;jumpSize=6;orthogonalLoop=1;jettySize=auto;html=1;exitX=0.5;exitY=1;exitDx=0;exitDy=0;entryX=0.5;entryY=0;entryDx=0;entryDy=0;fontSize=4;fontColor=#FF0000;strokeColor=#000000;strokeWidth=1;" edge="1" parent="1" source="yRCZEbvc07IkdjNfKhwh-34" target="yRCZEbvc07IkdjNfKhwh-36">
          <mxGeometry relative="1" as="geometry" />
        </mxCell>
        <mxCell id="yRCZEbvc07IkdjNfKhwh-34" value="newOutCFile(modp, slow, true)" style="rounded=0;whiteSpace=wrap;html=1;shadow=0;glass=0;strokeWidth=1;" vertex="1" parent="1">
          <mxGeometry x="600.5600000000002" y="1370" width="135" height="30" as="geometry" />
        </mxCell>
        <mxCell id="yRCZEbvc07IkdjNfKhwh-35" style="edgeStyle=orthogonalEdgeStyle;rounded=0;jumpSize=6;orthogonalLoop=1;jettySize=auto;html=1;exitX=0.5;exitY=1;exitDx=0;exitDy=0;entryX=0.5;entryY=0;entryDx=0;entryDy=0;fontSize=4;fontColor=#FF0000;strokeColor=#000000;strokeWidth=1;" edge="1" parent="1" source="yRCZEbvc07IkdjNfKhwh-36" target="yRCZEbvc07IkdjNfKhwh-38">
          <mxGeometry relative="1" as="geometry" />
        </mxCell>
        <mxCell id="yRCZEbvc07IkdjNfKhwh-36" value="emitImpTop(modp)" style="rounded=0;whiteSpace=wrap;html=1;shadow=0;glass=0;strokeWidth=1;" vertex="1" parent="1">
          <mxGeometry x="600.5600000000002" y="1420" width="135" height="30" as="geometry" />
        </mxCell>
        <mxCell id="yRCZEbvc07IkdjNfKhwh-37" style="edgeStyle=orthogonalEdgeStyle;rounded=0;jumpSize=6;orthogonalLoop=1;jettySize=auto;html=1;exitX=0.5;exitY=1;exitDx=0;exitDy=0;entryX=0.5;entryY=0;entryDx=0;entryDy=0;fontSize=4;fontColor=#FF0000;strokeColor=#000000;strokeWidth=1;" edge="1" parent="1" source="yRCZEbvc07IkdjNfKhwh-38" target="yRCZEbvc07IkdjNfKhwh-43">
          <mxGeometry relative="1" as="geometry" />
        </mxCell>
        <mxCell id="yRCZEbvc07IkdjNfKhwh-38" value="emitImp(modp)" style="rounded=0;whiteSpace=wrap;html=1;shadow=0;glass=0;strokeWidth=1;" vertex="1" parent="1">
          <mxGeometry x="600.5600000000002" y="1470" width="135" height="30" as="geometry" />
        </mxCell>
        <mxCell id="yRCZEbvc07IkdjNfKhwh-39" style="edgeStyle=orthogonalEdgeStyle;rounded=0;jumpSize=6;orthogonalLoop=1;jettySize=auto;html=1;exitX=0.5;exitY=1;exitDx=0;exitDy=0;fontColor=#FF0000;strokeColor=#000000;strokeWidth=1;" edge="1" parent="1" source="yRCZEbvc07IkdjNfKhwh-40" target="yRCZEbvc07IkdjNfKhwh-49">
          <mxGeometry relative="1" as="geometry" />
        </mxCell>
        <mxCell id="yRCZEbvc07IkdjNfKhwh-40" value="emitImp(packagep-&amp;gt;classp())" style="rounded=0;whiteSpace=wrap;html=1;shadow=0;glass=0;strokeWidth=1;" vertex="1" parent="1">
          <mxGeometry x="587.4400000000003" y="1599" width="161.25" height="30" as="geometry" />
        </mxCell>
        <mxCell id="yRCZEbvc07IkdjNfKhwh-41" value="Y" style="edgeStyle=orthogonalEdgeStyle;rounded=0;jumpSize=6;orthogonalLoop=1;jettySize=auto;html=1;exitX=0.5;exitY=1;exitDx=0;exitDy=0;entryX=0.5;entryY=0;entryDx=0;entryDy=0;fontColor=#FF0000;strokeColor=#000000;strokeWidth=1;" edge="1" parent="1" source="yRCZEbvc07IkdjNfKhwh-43" target="yRCZEbvc07IkdjNfKhwh-40">
          <mxGeometry relative="1" as="geometry" />
        </mxCell>
        <mxCell id="yRCZEbvc07IkdjNfKhwh-42" value="N" style="edgeStyle=orthogonalEdgeStyle;rounded=0;jumpSize=6;orthogonalLoop=1;jettySize=auto;html=1;entryX=1;entryY=0.5;entryDx=0;entryDy=0;fontColor=#FF0000;strokeColor=#000000;strokeWidth=1;exitX=1;exitY=0.5;exitDx=0;exitDy=0;" edge="1" parent="1" source="yRCZEbvc07IkdjNfKhwh-43" target="yRCZEbvc07IkdjNfKhwh-49">
          <mxGeometry relative="1" as="geometry" />
        </mxCell>
        <mxCell id="yRCZEbvc07IkdjNfKhwh-43" value="是AstClassPackage类型？" style="rhombus;whiteSpace=wrap;html=1;rounded=0;shadow=0;glass=0;strokeWidth=1;" vertex="1" parent="1">
          <mxGeometry x="608.0600000000002" y="1519" width="120" height="39" as="geometry" />
        </mxCell>
        <mxCell id="yRCZEbvc07IkdjNfKhwh-44" style="edgeStyle=orthogonalEdgeStyle;rounded=0;jumpSize=6;orthogonalLoop=1;jettySize=auto;html=1;entryX=0;entryY=0.5;entryDx=0;entryDy=0;fontSize=4;fontColor=#FF0000;strokeColor=#000000;strokeWidth=1;exitX=0;exitY=0.5;exitDx=0;exitDy=0;" edge="1" parent="1" source="yRCZEbvc07IkdjNfKhwh-46" target="yRCZEbvc07IkdjNfKhwh-49">
          <mxGeometry relative="1" as="geometry" />
        </mxCell>
        <mxCell id="yRCZEbvc07IkdjNfKhwh-45" style="edgeStyle=orthogonalEdgeStyle;rounded=0;jumpSize=6;orthogonalLoop=1;jettySize=auto;html=1;exitX=0.5;exitY=1;exitDx=0;exitDy=0;entryX=0.5;entryY=0;entryDx=0;entryDy=0;entryPerimeter=0;fontSize=4;fontColor=#FF0000;strokeColor=#000000;strokeWidth=1;" edge="1" parent="1" source="yRCZEbvc07IkdjNfKhwh-46" target="yRCZEbvc07IkdjNfKhwh-50">
          <mxGeometry relative="1" as="geometry" />
        </mxCell>
        <mxCell id="yRCZEbvc07IkdjNfKhwh-46" value="AstExecGraph&lt;br&gt;多线程拆分" style="rounded=0;whiteSpace=wrap;html=1;shadow=0;glass=0;strokeWidth=1;" vertex="1" parent="1">
          <mxGeometry x="600.5600000000006" y="1725" width="135" height="30" as="geometry" />
        </mxCell>
        <mxCell id="yRCZEbvc07IkdjNfKhwh-47" value="Y" style="edgeStyle=orthogonalEdgeStyle;rounded=0;jumpSize=6;orthogonalLoop=1;jettySize=auto;html=1;exitX=0.5;exitY=1;exitDx=0;exitDy=0;entryX=0.5;entryY=0;entryDx=0;entryDy=0;fontSize=4;fontColor=#FF0000;strokeColor=#000000;strokeWidth=1;" edge="1" parent="1" source="yRCZEbvc07IkdjNfKhwh-49" target="yRCZEbvc07IkdjNfKhwh-46">
          <mxGeometry relative="1" as="geometry" />
        </mxCell>
        <mxCell id="yRCZEbvc07IkdjNfKhwh-48" value="N" style="edgeStyle=orthogonalEdgeStyle;rounded=0;jumpSize=6;orthogonalLoop=1;jettySize=auto;html=1;exitX=1;exitY=1;exitDx=0;exitDy=0;fontSize=4;fontColor=#FF0000;strokeColor=#000000;strokeWidth=1;entryX=1;entryY=0.5;entryDx=0;entryDy=0;entryPerimeter=0;" edge="1" parent="1" source="yRCZEbvc07IkdjNfKhwh-49" target="yRCZEbvc07IkdjNfKhwh-50">
          <mxGeometry relative="1" as="geometry">
            <mxPoint x="673.0600000000002" y="1810" as="targetPoint" />
            <Array as="points">
              <mxPoint x="755.0600000000002" y="1679" />
              <mxPoint x="755.0600000000002" y="1785" />
            </Array>
          </mxGeometry>
        </mxCell>
        <mxCell id="yRCZEbvc07IkdjNfKhwh-49" value="fast &amp;amp;&amp;amp; isTop &amp;amp;&amp;amp; mtasks？" style="rhombus;whiteSpace=wrap;html=1;rounded=0;shadow=0;glass=0;strokeWidth=1;" vertex="1" parent="1">
          <mxGeometry x="600.5600000000002" y="1650" width="135" height="39" as="geometry" />
        </mxCell>
        <mxCell id="yRCZEbvc07IkdjNfKhwh-50" value="end" style="strokeWidth=1;html=1;shape=mxgraph.flowchart.terminator;whiteSpace=wrap;rounded=0;shadow=0;glass=0;" vertex="1" parent="1">
          <mxGeometry x="643.0699999999999" y="1770" width="50" height="30" as="geometry" />
        </mxCell>
      </root>
    </mxGraphModel>
  </diagram>
</mxfile>
